<svg width="45" height="32" viewBox="0 0 45 32" fill="none" xmlns="http://www.w3.org/2000/svg">
<rect x="0.5" y="0.5" width="44" height="30.7647" rx="4.79412" fill="#002603" stroke="#2B572E"/>
<path fill-rule="evenodd" clip-rule="evenodd" d="M22.7372 22.2741C21.17 23.5951 19.1372 24.3925 16.9158 24.3925C11.9594 24.3925 7.94141 20.4223 7.94141 15.5249C7.94141 10.6274 11.9594 6.65723 16.9158 6.65723C19.1372 6.65723 21.1701 7.45469 22.7372 8.77568C24.3044 7.45471 26.3372 6.65727 28.5585 6.65727C33.515 6.65727 37.533 10.6274 37.533 15.5249C37.533 20.4224 33.515 24.3926 28.5585 24.3926C26.3372 24.3926 24.3043 23.5951 22.7372 22.2741Z" fill="#ED0006"/>
<path fill-rule="evenodd" clip-rule="evenodd" d="M22.7368 22.274C24.6663 20.6475 25.8898 18.2274 25.8898 15.5249C25.8898 12.8224 24.6663 10.4022 22.7368 8.77576C24.304 7.45472 26.3369 6.65723 28.5583 6.65723C33.5147 6.65723 37.5327 10.6274 37.5327 15.5249C37.5327 20.4223 33.5147 24.3925 28.5583 24.3925C26.3369 24.3925 24.304 23.595 22.7368 22.274Z" fill="#F9A000"/>
<path fill-rule="evenodd" clip-rule="evenodd" d="M22.735 22.2741C24.6645 20.6476 25.888 18.2275 25.888 15.525C25.888 12.8225 24.6645 10.4024 22.735 8.77588C20.8055 10.4024 19.582 12.8225 19.582 15.525C19.582 18.2275 20.8055 20.6476 22.735 22.2741Z" fill="#FF5E00"/>
</svg>
