<svg width="338" height="531" viewBox="0 0 338 531" fill="none" xmlns="http://www.w3.org/2000/svg">
<path d="M125.208 48.6746C116.938 38.9646 101.488 48.4746 93.7478 54.2946C84.1178 61.5346 76.6278 71.3846 72.7278 82.7646C72.0078 77.4846 70.0878 68.4146 64.6478 73.2646C58.6878 78.5746 60.5178 90.9946 63.4978 97.2146C63.4478 97.2146 63.3978 97.2146 63.3478 97.2146C63.0378 96.9346 62.5678 96.8546 62.1778 97.2446C62.1678 97.2546 62.1678 97.2646 62.1578 97.2646C61.4078 97.3746 60.9978 97.9446 60.9378 98.5746C55.8278 104.145 52.5878 110.985 49.1478 117.705C45.1278 125.555 41.3578 133.535 37.8178 141.615C30.8578 157.465 24.8378 173.705 19.6378 190.215C19.3378 191.165 20.1378 192.045 21.0578 192.085C26.0178 192.265 28.1878 188.295 31.0378 184.645C34.4578 180.265 37.7878 175.825 41.0178 171.305C48.9078 160.265 56.1978 148.795 62.8678 136.975C65.9778 131.455 68.9478 125.865 71.7778 120.195C73.8278 116.095 77.0278 111.045 76.7578 106.235C76.7278 105.755 76.6678 105.305 76.5878 104.875C82.6678 107.935 91.7878 108.165 96.3978 103.375C98.1278 101.575 98.9278 98.9946 97.3778 96.8146C96.3678 95.3946 94.7678 94.8146 93.0678 94.6346C103.518 91.8246 112.988 85.8846 119.988 77.4846C126.258 69.9346 132.788 57.5646 125.208 48.6746ZM72.3578 111.935C71.5378 115.775 68.5578 120.015 66.7478 123.525C62.7978 131.155 58.5878 138.655 54.1378 146.005C49.9178 152.965 45.4678 159.795 40.8078 166.465C38.4778 169.805 36.0978 173.105 33.6578 176.365C31.5578 179.175 27.4978 186.555 23.2678 188.575C26.0078 180.005 28.9878 171.525 32.1878 163.115C32.3878 163.985 32.6678 164.825 33.0778 165.595C33.4778 166.345 34.6378 165.825 34.4278 165.025C34.0278 163.525 33.4378 162.135 33.1678 160.605C35.4478 154.715 37.8078 148.855 40.3278 143.055C40.5978 142.435 40.8878 141.825 41.1578 141.205C41.3278 142.265 41.6478 143.335 42.5278 143.925C42.9678 144.225 43.7278 143.945 43.8278 143.395C44.0378 142.215 43.3478 141.115 43.1278 139.955C42.9678 139.125 43.0478 138.215 42.8778 137.385C45.2778 132.085 47.7378 126.805 50.3078 121.585C50.5078 121.185 50.7078 120.765 50.9078 120.355C51.2678 122.345 51.9278 124.315 53.1878 125.545C53.8778 126.225 54.9078 125.525 54.7378 124.645C54.4778 123.335 53.6378 122.145 53.2078 120.875C52.8178 119.735 52.5478 118.555 52.3578 117.365C55.2178 111.415 58.1778 105.275 62.1678 100.095C62.2278 100.095 62.2678 100.125 62.3278 100.125C64.0878 100.105 66.0978 99.8546 67.7778 100.455C71.3578 101.745 73.1078 108.425 72.3578 111.935ZM113.198 80.2846C105.378 87.4046 95.9778 91.4246 85.6278 93.1346C84.0178 93.4046 84.3778 96.2246 86.0178 96.0146C86.7078 95.9246 87.3978 95.8146 88.0778 95.7046C88.1278 96.0846 88.4078 96.4346 88.8478 96.4146C90.9978 96.3346 98.4378 96.0746 93.8478 102.005C92.6978 103.485 88.7878 103.905 87.1078 104.035C82.4678 104.385 78.8478 102.705 74.8078 100.715C74.6978 100.665 74.5878 100.645 74.4778 100.625C72.2678 98.3146 68.7178 97.4546 65.1378 97.2646C65.2978 97.0546 65.3778 96.7846 65.2678 96.4846C63.4078 91.0646 62.6878 85.5246 64.2278 79.9246C64.4678 79.0346 64.9078 76.6946 65.6278 76.1846L68.7678 76.3146C68.8678 76.7046 68.9578 77.1046 69.0578 77.4946C70.2778 79.3346 70.2078 83.5846 70.8178 85.8146C71.1078 86.8546 72.7078 86.8546 73.0178 85.9646C73.2178 85.8846 73.3978 85.7446 73.4978 85.5046C77.2878 76.4746 82.3978 68.2146 89.5278 61.4346C96.1278 55.1646 113.628 41.5746 122.538 49.9746C131.868 58.7646 119.968 74.1346 113.198 80.2846Z" fill="#B4CCB4"/>
<path d="M166.118 73.5744C166.198 72.9244 166.298 72.2744 166.438 71.6344C167.228 67.8044 169.148 64.5944 170.658 61.0544C171.108 59.9944 169.848 58.7044 168.918 59.7144C167.108 61.6644 165.788 64.0744 164.898 66.6944C161.148 59.3744 152.698 53.5344 144.658 56.9044C143.878 57.2344 143.388 58.0344 143.868 58.8544C147.998 66.0444 155.038 71.1344 163.378 71.9644C163.508 71.9744 163.608 71.9444 163.698 71.9044C163.588 72.7344 163.528 73.5744 163.478 74.4044C149.278 69.5644 134.398 78.2544 132.118 93.2844C129.978 107.364 141.168 119.964 154.968 121.454C168.598 122.924 181.838 112.794 185.138 99.7044C188.308 87.0244 180.418 72.1944 166.118 73.5744ZM163.548 70.5844C163.058 70.4544 162.598 70.3044 162.118 70.1544C160.978 68.6344 159.278 67.4444 157.848 66.2144C156.108 64.7144 154.378 63.2244 152.618 61.7544C152.098 61.3244 151.358 62.0244 151.868 62.5044C153.508 64.0944 155.168 65.6544 156.838 67.2244C157.358 67.7144 157.878 68.2444 158.408 68.7744C153.738 66.6644 149.828 63.4244 147.028 58.9444C150.868 58.0744 154.668 59.2744 157.728 61.9544C160.518 64.3844 161.908 67.6044 163.878 70.5544C163.868 70.6244 163.848 70.6944 163.838 70.7644C163.768 70.6844 163.678 70.6144 163.548 70.5844ZM180.768 102.874C176.288 113.074 164.948 120.254 153.668 118.254C143.038 116.364 134.328 106.924 134.828 95.8844C135.498 81.2244 149.648 72.9444 163.138 75.9944C163.248 76.0144 163.338 76.0144 163.428 76.0044C163.418 78.5244 163.668 81.0144 164.208 83.2544C164.478 84.3844 166.448 84.1744 166.288 82.9744C165.998 80.8344 165.848 78.6944 165.898 76.5544C180.518 75.4044 185.888 91.2344 180.768 102.874Z" fill="#B4CCB4"/>
<path d="M95.5279 247.085C95.2679 245.935 95.0079 244.795 94.7279 243.655C94.4479 242.485 94.3679 241.485 93.3279 240.755C92.6979 240.305 91.9479 240.685 91.5879 241.245C76.1579 242.845 61.5079 239.385 48.2579 231.335C41.1379 227.015 32.1079 216.145 23.0679 220.675C21.2879 219.435 20.0479 217.755 19.4979 215.635C19.1079 214.155 19.1279 212.595 18.1379 211.335C16.6779 209.475 13.8979 209.255 11.8879 210.305C6.19789 213.285 9.43789 220.675 13.1679 224.145C13.1079 224.255 13.0679 224.385 13.0879 224.545C14.4879 240.825 33.0779 250.325 46.9879 254.435C60.9979 258.575 84.5379 261.325 94.9479 248.345C95.3679 248.155 95.6679 247.725 95.5279 247.085ZM48.8979 252.225C34.9579 248.335 19.3579 240.035 15.0679 225.255C15.8779 225.135 16.5479 224.135 16.0279 223.345C14.7679 221.415 12.7979 219.935 12.0679 217.675C11.4179 215.675 12.6179 210.805 15.5679 212.795C16.6379 213.515 16.6079 215.165 16.9779 216.315C17.2579 217.165 17.6779 217.985 18.1679 218.735C19.0379 220.035 20.1379 221.085 21.4179 221.915C21.1379 222.735 21.9879 223.695 23.0079 223.235C31.3179 219.515 38.4679 228.445 44.7079 232.495C49.2779 235.465 54.1279 237.965 59.2079 239.935C69.5679 243.955 80.5779 245.515 91.4779 243.115C91.6379 243.605 91.8779 244.085 92.0679 244.575C92.3479 245.285 92.6279 245.995 92.9179 246.705C83.0079 258.125 61.9079 255.855 48.8979 252.225Z" fill="#B4CCB4"/>
<path d="M73.1781 247.855C53.6381 248.445 36.0781 241.695 22.7681 227.165C22.4181 226.785 21.8981 227.335 22.2081 227.725C34.4381 242.465 53.9781 250.995 73.1781 248.815C73.7781 248.745 73.8081 247.835 73.1781 247.855Z" fill="#B4CCB4"/>
<path d="M58.2178 31.6145C58.3878 30.9445 57.5178 30.4645 57.0378 30.9545C56.2678 31.7445 55.4978 32.6644 54.2178 32.3544C52.7378 31.9944 52.3778 30.4045 52.7878 29.1545C53.0378 28.3945 51.9578 27.8445 51.4378 28.3945C50.8978 29.0945 50.1578 29.3845 49.2178 29.2545C47.8378 28.3745 47.7878 27.4444 49.0878 26.4644C49.6478 26.2444 49.4378 25.4044 48.8278 25.5444C47.1278 25.9444 46.3278 27.9745 47.2278 29.4845C48.0678 30.9045 49.6378 31.0345 50.9978 30.5145C51.3578 34.1345 57.1578 35.7245 58.2178 31.6145Z" fill="#B4CCB4"/>
<path d="M55.7578 47.3243C55.9478 46.6843 55.1078 45.9743 54.5378 46.4143C53.8778 46.9143 53.1978 47.6443 52.2778 47.3643C51.0378 46.9943 51.0478 45.5343 51.7378 44.7243C51.7878 44.6443 51.8578 44.5843 51.9078 44.5043C52.4178 43.5843 51.1678 42.6243 50.4278 43.3943C50.2478 43.5843 50.0878 43.7943 49.9478 44.0143C49.1778 44.6943 47.7578 44.4643 47.4678 43.3243C47.1778 42.2243 48.0078 41.1643 48.9178 40.6843C49.4778 40.3843 49.0778 39.4143 48.4778 39.6443C46.4778 40.4243 45.1478 42.9043 46.4878 44.8543C47.1678 45.8443 48.2978 46.2443 49.3778 46.1343C49.3978 47.0943 49.7978 48.0243 50.6278 48.6743C52.2478 49.9643 55.1378 49.4243 55.7578 47.3243Z" fill="#B4CCB4"/>
<path d="M47.988 65.8945C48.058 65.8545 48.138 65.8345 48.198 65.7745C66.158 50.1445 74.088 24.8145 71.088 1.57452C70.978 0.744521 70.208 0.234528 69.418 0.644528C59.258 5.97453 49.168 14.2045 42.358 24.1845C42.178 24.0345 41.998 23.8645 41.798 23.7345C41.358 23.3845 40.648 23.2445 40.228 23.7445C37.278 27.2945 34.318 30.8245 31.398 34.3945C31.048 34.8245 30.948 35.4945 31.408 35.9045C32.698 37.0645 33.908 38.3245 35.258 39.4145C33.628 45.6445 33.428 52.2345 35.208 59.0145C35.378 59.6445 36.358 59.5045 36.338 58.8445C35.708 42.0845 41.118 27.9645 51.298 16.9545C54.548 21.5845 61.488 28.7345 67.658 25.8545C64.518 40.0845 57.128 53.0245 46.518 64.1245C46.458 64.1845 46.438 64.2445 46.398 64.3045C45.798 64.4545 45.278 65.0045 45.478 65.7745C47.198 72.5445 46.498 79.2845 43.528 85.4945C39.808 80.1245 39.048 74.3645 38.938 67.9145C38.988 67.8645 39.048 67.8245 39.108 67.7645C40.218 66.6745 38.518 65.0145 37.388 66.0645C32.758 70.3845 27.138 72.7145 20.938 72.8445C24.848 67.1845 29.888 64.2045 35.728 60.3545C36.268 59.9945 35.898 59.2845 35.308 59.3645C27.778 60.4945 21.378 67.1745 17.678 73.4245C17.178 74.2645 17.888 75.1645 18.758 75.2245C25.408 75.6645 31.838 73.7045 36.988 69.6345C35.858 76.3045 38.788 83.5845 42.888 88.6645C43.388 89.2845 44.448 89.0145 44.788 88.3945C48.678 81.4345 49.748 73.6345 47.988 65.8945ZM33.588 35.1045C36.078 32.1645 38.548 29.2045 41.018 26.2545C38.778 29.8645 36.988 33.6845 35.768 37.6645C35.098 36.7745 34.348 35.9245 33.588 35.1045ZM52.078 16.1245C56.798 11.2145 62.478 6.94453 69.038 3.36453C69.708 10.3945 69.348 17.2145 68.108 23.7645C61.278 25.6945 56.348 20.8645 52.078 16.1245Z" fill="#B4CCB4"/>
<path d="M63.0779 11.9343C60.9979 11.0143 58.8279 13.3143 59.9479 15.3443C60.2579 15.9143 61.0079 15.4843 60.9179 14.9243C60.7979 14.1943 61.7879 13.2843 62.5179 13.3743C63.2979 13.4543 63.9679 12.3243 63.0779 11.9343Z" fill="#B4CCB4"/>
<path d="M161.358 186.585C163.558 178.035 165.798 169.935 164.168 161.095C163.918 159.755 162.518 159.725 161.708 160.435C161.738 159.745 161.688 159.025 161.508 158.275C165.058 162.255 171.658 159.835 171.838 154.375C172.028 148.745 166.938 146.474 162.328 147.324C164.398 142.134 164.918 135.365 158.648 133.115C155.558 132.005 152.008 133.834 150.908 136.574C149.448 134.524 148.008 132.074 145.558 132.234C141.988 132.474 140.258 137.805 139.408 141.365C136.138 139.045 132.028 137.124 128.298 139.394C125.668 140.995 124.388 144.034 125.478 146.764C124.198 147.164 122.968 147.754 121.848 148.534C119.868 142.784 112.718 141.444 108.938 146.444C107.938 142.564 103.948 139.894 99.6382 140.694C92.6082 141.994 90.3982 148.865 90.8982 155.125C85.5382 152.765 78.8182 154.965 77.7982 161.615C77.6282 162.715 78.1582 164.965 79.0382 166.924C75.1382 166.114 70.7982 166.754 68.3182 170.164C66.4582 172.724 66.2182 176.104 67.6982 178.734C64.8182 179.364 62.0482 180.875 61.5382 184.055C61.1982 186.135 62.0582 188.345 63.7682 189.305C61.0282 191.905 59.6982 196.564 63.0882 199.224C65.4882 201.104 68.7482 200.555 70.5882 198.585C74.3082 204.525 83.8782 202.895 84.7582 195.145C85.0382 195.415 85.3582 195.635 85.6682 195.865C84.8882 195.665 84.0982 196.624 84.7882 197.354C97.8682 211.154 113.228 219.114 130.248 227.044C134.798 229.164 139.228 231.554 142.748 235.224C145.748 238.344 147.608 242.265 150.388 245.555C153.928 249.735 159.558 253.484 165.218 251.314C180.298 245.534 164.598 226.185 161.668 218.204C157.808 207.674 158.628 197.235 161.358 186.585ZM129.028 142.215C131.328 140.855 133.458 140.794 135.398 142.034C136.968 142.684 138.238 143.675 139.588 144.685C140.218 145.155 141.338 144.674 141.468 143.914C142.058 140.574 143.648 133.094 148.018 136.264C149.068 137.024 149.758 138.145 150.638 139.095C150.728 139.635 150.918 140.184 151.228 140.724C151.828 141.794 153.168 141.075 153.138 140.055C153.238 139.925 153.308 139.764 153.328 139.604C155.968 134.964 158.328 134.365 160.428 137.845C161.188 139.005 161.438 140.254 161.178 141.604C161.218 144.404 160.108 146.574 158.678 148.944C157.998 150.074 159.338 151.344 160.458 150.724C162.968 149.314 166.688 148.894 168.568 151.824C170.838 155.354 166.038 160.435 162.598 156.555C162.038 155.925 161.318 156.305 161.078 156.895C160.938 156.555 160.788 156.204 160.598 155.854C159.858 154.474 157.828 155.684 158.518 157.074C162.058 164.264 151.898 169.234 148.358 161.974C147.848 160.934 146.058 161.414 146.138 162.574C146.468 167.084 142.238 169.064 139.018 167.424C140.498 165.264 140.338 162.104 137.638 159.884C139.678 157.264 139.758 153.064 137.308 150.014C134.968 147.094 131.608 145.964 128.268 146.224L129.028 142.215ZM149.308 187.754C143.548 194.834 137.758 182.725 133.908 177.585C134.738 177.065 135.458 176.305 135.988 175.245C136.968 173.285 136.818 171.214 135.788 169.634C136.418 169.484 136.978 169.225 137.478 168.905C141.218 171.765 146.548 170.104 148.078 165.754C149.198 166.884 150.518 167.535 151.888 167.805C151.838 167.895 151.768 167.964 151.728 168.074C149.628 174.094 153.488 182.624 149.308 187.754ZM83.6182 193.395C83.1082 193.465 82.6282 193.804 82.5882 194.454C82.0982 201.075 73.5082 201.665 71.9082 195.375C71.5282 193.895 69.6182 194.404 69.4482 195.704C69.0082 199.124 63.7882 198.224 63.4682 194.734C63.2682 192.514 64.8782 190.704 66.4782 189.454C66.7582 189.244 66.8082 188.964 66.7282 188.704C66.7282 188.384 66.5782 188.084 66.2282 187.914C64.2682 187.024 63.3282 184.845 64.9682 182.835C66.0782 181.465 68.6282 181.145 70.1982 181.055C71.2682 180.995 72.0682 179.585 71.1382 178.775C68.3582 176.335 69.1282 172.034 72.0882 170.014C74.4982 168.364 77.5582 168.505 80.3082 169.095C81.5382 170.695 83.0282 171.245 84.3682 168.905C84.9782 167.825 83.4082 166.934 82.7182 167.944C81.1182 167.504 80.3382 166.494 80.3582 164.944C79.8282 163.624 79.8182 162.285 80.3382 160.935C82.3282 156.405 87.4282 154.964 91.5582 158.164C92.4682 158.864 93.7582 158.245 93.5082 157.025C92.6682 152.915 92.6882 148.215 96.0182 145.085C100.418 140.945 107.168 143.225 107.088 149.435C107.078 150.545 108.878 150.854 109.078 149.704C109.158 149.254 109.178 148.814 109.178 148.384C109.318 148.334 109.448 148.254 109.548 148.104C113.758 143.244 117.288 144.014 120.138 150.414C120.248 151.334 121.238 151.834 121.978 151.174C124.418 148.994 127.468 147.804 130.828 148.534C131.688 148.874 132.558 149.204 133.418 149.544C138.098 152.454 137.488 155.975 131.618 160.115C130.198 160.065 130.268 162.135 131.618 162.275C133.368 162.465 134.838 162.095 136.018 161.375C135.078 163.415 134.148 165.464 133.208 167.504C131.778 167.184 131.338 169.104 132.618 169.645C135.468 172.135 134.958 173.695 131.088 174.335C129.118 176.495 127.088 176.664 125.008 174.824C124.318 174.444 123.378 174.915 123.398 175.745C123.488 179.795 120.788 182.024 117.888 182.104C117.518 180.844 116.048 180.855 115.368 181.595C114.008 181.005 112.768 179.895 111.978 178.185C111.698 177.575 110.758 177.854 110.658 178.414C110.088 177.904 109.068 178.495 109.558 179.215C113.078 184.495 105.928 186.874 102.578 184.984C99.9982 183.524 98.9782 180.904 98.3682 178.134C98.2082 177.414 97.0182 177.194 96.6982 177.914C95.0682 181.594 90.2682 184.044 86.4682 181.664C82.5782 179.234 83.0782 174.104 85.1482 170.754C85.6082 170.004 84.5682 169.224 83.9482 169.824C80.2982 173.374 80.8982 179.905 85.0182 182.905C87.8782 184.985 91.3682 184.794 94.1682 183.204C94.2382 183.364 94.3382 183.515 94.4982 183.655C97.2582 186.145 98.0582 190.674 95.2582 193.514C92.4282 196.384 87.7182 195.654 85.1082 192.954C84.5982 192.414 83.7582 192.814 83.6182 193.395ZM96.2982 181.835C96.2382 181.785 96.1782 181.775 96.1182 181.745C96.4682 181.415 96.8082 181.065 97.1082 180.685C98.4982 185.005 102.108 189.385 107.058 187.965C110.238 187.055 112.388 183.755 111.788 180.715C112.728 182.055 113.928 182.945 115.238 183.465C116.028 186.365 116.668 189.294 116.958 192.294C117.118 193.944 117.208 195.634 117.178 197.294C117.138 200.264 117.378 200.724 114.388 202.294C111.318 203.904 110.858 203.324 108.038 201.754C106.928 201.134 105.858 200.444 104.808 199.724C102.328 198.024 100.168 196.074 98.0382 193.984C100.498 190.274 99.8682 184.655 96.2982 181.835ZM168.238 241.314C166.158 243.754 164.068 246.204 161.988 248.645C159.508 248.545 157.408 247.695 155.688 246.095C150.228 241.985 147.778 234.935 142.418 230.555C137.338 226.405 131.128 224.044 125.178 221.454C110.838 215.224 98.0182 206.655 86.3382 196.275C89.4282 198.085 93.5982 198.024 96.4582 195.674C100.568 200.365 110.898 210.234 117.088 205.984C119.638 204.234 119.968 200.954 120.068 198.115C120.228 193.325 119.598 188.574 118.408 183.954C121.678 183.754 124.788 181.414 125.418 177.384C127.378 178.224 129.678 178.724 131.708 178.384C135.688 183.954 139.658 196.484 148.738 192.264C157.528 188.184 152.428 175.834 154.748 168.895C154.888 168.485 154.828 168.145 154.698 167.845C157.568 167.395 160.208 165.444 161.258 162.694C163.288 177.914 154.228 192.084 155.868 207.484C156.528 213.704 158.348 219.715 161.258 225.245C162.848 228.265 164.928 231.035 166.398 234.125C167.238 235.965 168.738 239.214 168.238 241.314Z" fill="#B4CCB4"/>
<path d="M237.518 184.644C237.468 184.624 237.428 184.615 237.378 184.595C237.528 181.585 234.298 178.725 231.958 177.275C229.048 175.465 225.638 174.884 222.308 175.514C222.568 174.974 222.848 174.444 223.168 173.914C224.198 172.204 226.818 170.514 227.058 168.534C227.408 165.664 223.348 164.195 221.218 164.625C217.398 165.385 215.098 169.775 213.858 173.085C213.578 173.835 213.378 174.574 213.218 175.314C213.108 175.274 212.998 175.224 212.868 175.224C206.068 174.774 199.498 178.065 195.808 183.715C194.288 183.975 192.788 184.464 191.348 185.254C184.338 189.144 182.698 196.755 184.318 204.095C185.718 210.445 188.268 216.735 190.298 222.905C191.878 227.705 192.908 233.344 195.438 237.784C197.848 242.014 203.518 244.524 206.548 239.474C206.828 239.004 206.178 238.494 205.788 238.884C199.208 245.534 194.808 227.584 193.918 224.824C192.338 219.914 190.748 215.005 189.188 210.085C187.238 203.955 184.778 197.035 189.118 191.275C193.878 184.955 201.288 185.844 206.798 190.164C206.108 190.614 205.428 191.094 204.808 191.644C201.268 192.524 200.798 196.235 200.438 199.745C199.518 208.705 200.138 217.825 202.228 226.595C203.788 233.145 210.118 252.335 219.138 240.365C219.278 240.174 219.398 239.954 219.528 239.754C220.008 244.824 226.188 244.345 229.188 240.905C233.308 236.165 235.638 228.614 238.188 222.944C240.608 217.544 243.308 211.994 244.718 206.224C246.568 198.644 245.598 188.374 237.518 184.644ZM222.108 177.604C225.108 177.174 228.088 177.884 230.628 179.544C231.858 180.344 232.988 181.385 233.838 182.585C234.108 182.975 234.318 183.364 234.538 183.754C232.218 183.394 229.908 183.795 227.918 184.835C227.878 184.765 227.858 184.684 227.798 184.615C225.808 182.254 223.268 181.155 220.398 181.185C220.658 179.915 221.008 178.684 221.448 177.484C221.638 177.584 221.858 177.644 222.108 177.604ZM214.058 184.544C214.548 184.364 214.948 183.944 214.928 183.394C214.828 179.684 215.178 176.124 216.768 172.724C217.388 171.404 218.328 169.564 219.408 168.604C221.308 166.524 222.648 166.284 223.408 167.884C224.138 168.494 223.998 169.054 222.988 169.564C222.048 171.644 220.278 173.364 219.338 175.534C218.398 177.714 217.818 179.944 217.468 182.284C217.308 183.334 218.038 184.114 219.108 183.924C221.798 183.444 223.978 184.354 225.728 186.314C224.708 187.224 223.848 188.355 223.228 189.655C219.268 187.045 214.038 186.844 209.478 188.724C208.968 188.124 208.408 187.584 207.828 187.074C209.898 186.204 211.958 185.324 214.058 184.544ZM206.368 185.974C204.058 184.434 201.368 183.575 198.618 183.495C202.318 179.725 207.268 177.745 212.728 177.965C212.608 178.805 212.508 179.644 212.378 180.504C212.058 182.644 212.158 182.604 210.538 183.784C209.338 184.664 207.788 185.314 206.368 185.974ZM218.158 235.854C217.748 237.784 216.368 238.704 214.028 238.604C211.388 240.854 209.648 240.405 208.798 237.245C206.788 233.445 205.698 228.655 204.788 224.495C204.018 221.025 199.598 195.525 206.008 194.275C206.788 194.125 207.088 193.364 206.988 192.674C207.628 192.294 208.298 191.955 208.968 191.655C209.418 191.675 209.858 191.484 210.148 191.174C212.798 190.204 215.628 189.934 218.518 190.754C225.248 192.684 226.658 198.804 226.278 204.984C225.758 213.544 222.598 222.484 220.018 230.604C219.508 232.214 219.138 234.464 218.158 235.854ZM238.678 214.074C236.798 218.624 234.778 223.125 232.688 227.585C231.728 229.645 230.748 231.694 229.738 233.724L228.528 236.164C227.548 239.064 225.138 239.914 221.288 238.694C221.248 238.284 221.008 238.015 220.718 237.905C224.078 231.875 225.288 223.715 226.848 217.365C228.498 210.665 230.818 202.534 228.128 195.784C227.478 194.154 226.608 192.794 225.578 191.664C229.098 181.214 240.558 188.744 242.188 195.634C243.678 201.914 241.038 208.374 238.678 214.074Z" fill="#B4CCB4"/>
<path d="M108.028 320.915C113.968 318.655 112.888 309.845 106.808 308.955C108.128 306.915 109.088 304.475 109.928 302.105C110.908 302.695 112.128 302.875 113.418 302.375C114.788 301.845 115.878 300.585 116.188 299.145C116.628 297.085 115.128 295.355 115.158 293.335C115.158 293.315 115.148 293.305 115.148 293.285C115.218 293.175 115.288 293.075 115.328 292.935C117.228 286.575 128.308 282.075 132.958 277.895C136.598 274.625 139.648 270.815 141.158 266.095C144.128 256.815 139.618 248.555 130.618 245.295C121.438 241.975 111.048 245.075 105.228 252.955C102.158 257.105 100.928 262.085 100.658 267.175C100.308 273.835 103.428 282.515 101.668 289.045C99.7682 290.995 96.4381 292.405 97.6081 295.585C98.3881 297.705 100.398 297.905 102.238 297.285C101.748 298.325 101.298 299.385 100.908 300.475C100.638 301.225 100.298 302.035 100.078 302.855C98.3981 301.765 96.4781 300.975 94.4681 301.715C92.4181 302.465 91.0082 304.635 90.9782 306.785C90.9182 311.555 95.2782 313.335 99.1882 312.695C98.0482 317.725 102.328 323.085 108.028 320.915ZM104.798 298.095C104.538 297.445 104.848 296.505 104.988 295.845C105.008 295.745 105.008 295.645 104.988 295.555C105.038 295.505 105.088 295.455 105.128 295.405C105.868 294.545 104.798 293.455 103.868 293.975C102.948 294.495 101.548 295.965 100.388 295.475C98.0581 294.475 100.948 292.215 101.738 291.475C101.918 291.305 102.088 291.125 102.238 290.945C102.358 290.915 102.478 290.845 102.588 290.715C106.548 285.775 103.638 277.015 103.508 271.235C103.368 264.765 104.248 258.175 108.748 253.195C114.118 247.235 123.048 245.155 130.498 248.275C146.548 255.005 137.068 271.515 127.458 278.765C122.378 282.605 114.498 285.715 112.838 292.435C112.728 292.865 112.838 293.205 113.048 293.455C112.838 294.855 113.438 295.935 113.818 297.295C114.518 299.805 112.058 300.755 110.728 299.865C110.748 299.805 110.768 299.745 110.788 299.695C110.998 299.125 110.428 298.655 109.998 298.805C109.928 298.545 109.898 298.265 109.928 297.935C110.048 296.655 108.448 295.985 107.758 297.185C107.258 298.055 105.588 300.115 104.798 298.095ZM102.198 311.405C102.708 310.605 101.678 309.365 100.798 309.805C98.6382 310.875 95.6882 311.385 94.0582 308.855C92.6082 305.575 93.7682 303.865 97.5482 303.735C98.3382 304.005 99.1182 304.315 99.8782 304.645C99.8882 304.705 99.8781 304.775 99.8881 304.835C99.9881 305.565 100.858 305.715 101.238 305.115C101.998 303.935 102.078 302.355 102.468 301.025C102.648 300.395 102.868 299.785 103.078 299.175C103.218 299.835 103.538 300.425 104.158 300.885C105.638 301.955 107.058 301.345 108.198 300.285C108.348 300.565 108.528 300.825 108.718 301.075C108.188 302.175 107.668 303.275 107.128 304.365C106.348 305.935 105.358 307.455 104.818 309.125C104.718 309.435 104.858 309.705 105.078 309.885C104.988 310.385 105.208 310.915 105.898 311.035C110.778 311.885 111.068 318.675 105.858 319.135C101.598 319.475 100.238 314.465 102.198 311.405Z" fill="#B4CCB4"/>
<path d="M215.108 260.785C210.048 255.805 203.188 254.515 196.618 256.875C193.898 257.855 191.458 259.655 188.578 260.215C184.188 261.065 180.838 259.335 177.138 257.515C173.568 255.765 170.378 254.355 166.358 254.265C165.608 254.245 165.228 254.795 165.208 255.375C151.478 257.635 149.048 276.655 155.928 287.285C165.438 301.965 186.028 306.785 201.778 300.275C216.238 294.295 228.728 274.205 215.108 260.785ZM208.048 293.515C195.768 302.855 177.738 302.555 165.458 293.355C152.648 283.755 149.158 261.195 167.558 256.785C173.038 257.445 177.248 261.135 182.558 262.425C186.588 263.405 189.938 262.335 193.688 260.825C203.078 257.045 213.748 257.905 217.328 269.265C220.238 278.525 215.358 287.955 208.048 293.515Z" fill="#B4CCB4"/>
<path d="M207.288 276.915C206.628 270.265 199.758 264.655 193.068 266.905C192.708 267.025 192.488 267.295 192.388 267.595C187.038 267.775 183.058 272.695 183.348 278.265C183.698 285.075 190.178 290.525 196.958 289.685C203.188 288.915 207.908 283.175 207.288 276.915ZM197.678 286.895C192.988 288.085 187.718 284.945 186.248 280.385C184.508 274.985 187.758 270.005 192.898 268.965C193.028 269.025 193.178 269.055 193.358 269.055C198.648 268.915 203.568 270.595 204.658 276.495C205.548 281.265 202.308 285.715 197.678 286.895Z" fill="#B4CCB4"/>
<path d="M23.3379 263.535C23.1179 263.775 23.0879 264.055 23.1579 264.295C18.7479 269.215 16.1779 276.115 17.8479 282.685C18.7179 286.085 20.1379 288.905 20.1079 292.505C20.0779 295.455 19.2479 298.175 18.6279 301.025C17.8179 304.805 17.3779 307.815 18.7579 311.365C18.7679 311.445 18.7779 311.535 18.8079 311.625C19.4679 313.365 21.9379 314.885 23.7879 314.775C25.4079 314.685 26.5579 313.645 26.7079 312.155C27.0179 312.035 27.2379 311.725 27.0679 311.355C26.5379 310.235 26.2479 309.085 26.1079 307.915C42.9879 304.655 59.5779 298.075 75.8979 292.795C76.5878 292.575 76.8378 291.525 76.2178 291.075C62.4478 280.935 44.7379 275.655 28.9979 269.205C29.0379 269.075 29.0679 268.945 29.1079 268.815C29.2279 268.785 29.3379 268.725 29.3979 268.575C30.0879 266.915 29.7479 265.045 28.3779 263.825C27.1479 262.735 24.5679 262.195 23.3379 263.535ZM32.0179 304.865C30.4279 302.625 32.3279 299.475 34.7979 298.875C37.4179 298.235 38.8179 300.095 39.7379 302.125C37.1379 303.005 34.5679 303.905 32.0179 304.865ZM65.6978 293.985C64.5279 294.355 63.3479 294.715 62.1679 295.075C61.8479 294.505 61.9879 293.705 62.4278 293.205C62.9879 292.565 63.7279 292.225 64.5079 291.955C64.7779 292.645 65.1079 293.305 65.5679 293.875C65.6079 293.925 65.6578 293.945 65.6978 293.985ZM46.3679 278.325C46.3479 278.345 46.3379 278.355 46.3179 278.385C45.9079 279.095 45.4979 279.795 45.0879 280.505C44.8579 280.895 44.3079 282.345 43.7579 282.365C43.4479 282.375 42.9679 281.885 42.6779 281.765C42.6179 281.735 42.5579 281.735 42.4979 281.705C42.9379 280.245 43.5179 278.845 44.2579 277.505C44.9679 277.775 45.6679 278.055 46.3679 278.325ZM42.7779 276.935C41.8679 278.615 41.1779 280.375 40.7079 282.225C40.5879 282.675 41.0479 283.275 41.5479 283.175C42.6679 282.945 43.3979 284.545 44.6779 283.785C45.3078 283.415 45.5579 282.585 45.8379 281.955C46.3079 280.915 46.7879 279.885 47.2579 278.845C47.2779 278.795 47.2879 278.745 47.2979 278.695C56.3979 282.285 65.3878 286.225 73.3078 291.525C71.3078 292.195 69.2779 292.835 67.2579 293.485C67.2979 293.285 67.2479 293.065 67.0679 292.855C66.5079 292.195 66.0378 291.545 65.6978 290.745C65.5378 290.375 65.1179 290.105 64.7178 290.275C63.2979 290.875 61.3879 291.705 61.2479 293.455C61.1979 294.085 61.2679 294.745 61.5479 295.275C54.8879 297.325 48.1779 299.335 41.5679 301.525C41.1079 298.105 36.5779 296.185 33.5779 297.445C30.6879 298.655 28.5679 302.825 30.9079 305.315C29.2779 305.945 27.6479 306.575 26.0379 307.255C25.6079 301.055 29.4079 294.235 28.2679 287.815C27.7179 284.715 25.5179 281.035 25.7879 277.915C25.9879 275.545 27.2279 273.435 28.2079 271.275C32.9479 273.205 37.8479 275.045 42.7779 276.935ZM27.1679 265.195C27.7379 265.565 28.1279 266.155 28.3379 266.795C28.2679 266.865 28.2079 266.955 28.1779 267.075C27.9679 267.755 27.6879 268.385 27.3779 268.995C26.9679 269.225 26.7179 269.695 26.7579 270.135C25.7279 271.895 24.5779 273.535 24.1979 275.655C23.4379 279.835 25.5679 284.125 26.1079 288.165C27.1479 295.955 21.0379 304.535 25.6879 311.595C25.3979 312.685 23.7079 312.825 22.8779 312.495C21.7879 312.055 21.1579 310.945 20.0879 310.525C19.9679 310.475 19.8479 310.465 19.7179 310.465C19.8079 303.195 23.5079 296.015 22.1779 288.825C21.5579 285.465 19.6079 282.525 19.4879 279.025C19.3079 273.855 22.0479 269.425 24.6679 265.225C24.7479 265.105 24.7779 264.985 24.7879 264.865C25.0779 264.795 25.3779 264.725 25.6879 264.735C26.1979 264.735 26.7179 264.905 27.1679 265.195Z" fill="#B4CCB4"/>
<path d="M31.5976 287.455C31.2476 287.565 31.0876 287.915 31.0776 288.255C31.0376 289.865 31.0876 291.585 31.5076 293.145C31.6476 293.655 32.1776 293.755 32.5876 293.595C34.5876 294.405 37.0576 292.575 36.8776 290.425C36.6576 287.935 33.7276 286.795 31.5976 287.455ZM35.3776 290.395C35.7376 291.845 34.3076 292.675 33.0676 292.625C32.9076 291.345 32.7176 290.105 32.6676 288.825C33.7776 288.725 35.0876 289.245 35.3776 290.395Z" fill="#B4CCB4"/>
<path d="M30.1578 275.425C27.9178 276.335 26.4078 279.805 27.9578 281.885C28.1078 282.095 28.3878 282.165 28.6278 282.125C29.3478 283.815 31.3378 284.655 33.1278 284.195C35.5178 283.585 36.4378 280.875 35.8578 278.665C35.2078 276.245 32.6278 274.415 30.1578 275.425ZM34.0778 279.105C34.4778 280.405 34.0978 282.025 32.7878 282.645C31.4778 283.265 29.7078 282.665 29.1878 281.305C29.1678 281.255 29.1378 281.255 29.1078 281.215C29.1778 279.785 28.8678 278.335 30.2778 277.365C31.8578 276.265 33.5878 277.495 34.0778 279.105Z" fill="#B4CCB4"/>
<path d="M39.8879 288.245C39.4679 288.765 39.2479 289.245 39.1979 289.925C39.1379 290.695 40.2379 290.965 40.4079 290.165C40.4279 289.995 40.4979 289.855 40.5579 289.715C41.4579 290.395 42.4079 291.005 43.3379 291.625C43.8079 291.935 44.6579 292.305 45.0179 292.735C45.5679 293.395 45.3479 293.935 44.9579 294.415C43.3579 292.935 41.5179 291.745 39.4979 290.885C38.6179 290.515 37.9679 291.815 38.8379 292.225C40.9779 293.225 42.7979 294.585 44.4379 296.285C44.7779 296.635 45.3579 296.505 45.6579 296.195C46.7679 295.045 47.8379 293.315 46.5879 291.865C45.9679 291.145 44.9579 290.665 44.1779 290.165C43.0579 289.445 41.9379 288.665 40.7479 288.085C40.4679 287.935 40.0779 287.995 39.8879 288.245Z" fill="#B4CCB4"/>
<path d="M50.6279 284.815C48.8779 286.395 48.0479 290.135 50.0879 291.835C50.5679 294.195 53.9679 294.715 56.0079 293.725C58.8679 292.345 60.1679 288.755 58.2879 286.045C56.5979 283.605 52.9279 282.725 50.6279 284.815ZM55.6679 286.135C57.3579 287.285 57.8079 289.325 56.5779 290.995C56.0379 291.725 55.2679 292.295 54.3979 292.565C53.3879 292.885 51.9979 292.725 51.2479 291.905C51.3579 291.765 51.3979 291.585 51.2979 291.355C50.6579 289.875 50.1879 288.555 51.0579 287.025C52.0479 285.315 54.1079 285.085 55.6679 286.135Z" fill="#B4CCB4"/>
<path d="M41.188 338.695C39.998 336.065 38.088 335.335 36.508 333.205C33.638 329.355 35.878 326.195 34.398 322.375C30.818 313.095 14.758 315.305 12.418 324.265C12.378 324.425 12.368 324.575 12.398 324.715C7.49795 330.985 8.34795 341.575 13.358 347.435C19.408 354.515 33.008 357.135 39.878 349.655C42.648 346.635 42.848 342.345 41.188 338.695ZM32.558 351.245C25.278 353.235 16.818 349.895 13.188 343.235C9.10795 335.745 12.458 328.475 16.488 321.975C16.598 321.805 16.498 321.625 16.358 321.545C21.388 316.255 31.558 318.275 32.688 326.885C32.988 329.155 32.258 330.885 33.478 333.025C34.648 335.105 37.118 336.195 38.428 338.215C41.938 343.645 38.278 349.685 32.558 351.245Z" fill="#B4CCB4"/>
<path d="M81.8079 324.994C81.7079 321.014 78.8279 317.364 75.6079 315.354C75.3979 315.224 75.1879 315.404 75.1779 315.604C69.1679 312.754 61.2379 314.774 60.8479 322.874C60.5579 328.764 63.9179 327.304 58.0679 335.484C56.6779 337.434 55.2579 338.534 54.5379 340.964C53.3579 344.974 54.5179 349.354 57.4779 352.254C64.2779 358.904 76.1479 355.044 81.3679 348.134C86.3879 341.484 85.3179 332.444 81.8079 324.994ZM64.6779 353.104C60.6579 353.354 57.8979 351.334 56.3779 347.054C55.1879 342.264 56.7779 338.454 61.1379 335.634C61.7579 334.934 62.8179 334.454 63.1679 333.554C64.3479 330.474 63.4479 332.414 63.9179 329.294C63.8179 328.494 63.6679 327.704 63.4679 326.914C62.9879 316.424 67.3479 313.694 76.5379 318.724C76.5579 318.744 76.5779 318.744 76.6079 318.754C80.2479 324.304 82.6079 330.674 82.3079 337.414C81.8979 346.594 73.9779 354.404 64.6779 353.104Z" fill="#B4CCB4"/>
<path d="M157.488 313.855C157.308 312.445 156.398 310.735 155.028 310.105C160.408 299.535 154.248 284.605 140.788 285.965C130.158 287.045 121.918 303.015 129.828 311.265C128.668 311.885 127.688 312.725 127.468 314.145C127.238 315.585 127.838 317.075 128.978 317.975C129.868 318.675 131.008 318.825 132.078 318.585C132.708 325.325 133.938 331.975 135.288 338.605C136.548 344.755 137.278 352.405 140.108 358.025C140.248 358.295 140.638 358.545 140.948 358.505C145.338 357.975 145.698 350.505 146.668 347.155C149.318 338.015 151.248 328.745 152.728 319.345C153.668 319.375 154.618 319.075 155.438 318.485C156.908 317.455 157.718 315.635 157.488 313.855ZM147.328 337.255C146.548 340.425 144.568 353.175 141.778 353.495C138.998 353.815 134.658 325.765 133.258 318.145C133.538 317.985 133.818 317.815 134.048 317.595C134.708 318.895 136.018 319.945 137.408 320.275C139.458 320.765 142.158 319.795 143.628 318.055C144.278 319.075 145.548 319.715 146.828 319.555C147.748 319.445 148.898 318.735 149.698 317.805C149.918 318.115 150.208 318.405 150.558 318.645C150.728 318.765 150.908 318.865 151.088 318.955C150.058 325.105 148.808 331.205 147.328 337.255ZM155.108 315.925C154.648 316.635 153.738 317.315 152.878 317.375C151.918 317.445 150.478 316.745 150.708 315.575C150.748 315.355 150.668 315.155 150.538 314.995C150.508 314.905 150.478 314.815 150.438 314.725C150.288 314.425 149.848 314.315 149.568 314.495C148.548 315.135 148.468 316.605 147.438 317.335C146.398 318.075 144.558 317.615 144.608 316.155C144.618 316.115 144.638 316.085 144.648 316.055C144.788 315.305 144.008 314.905 143.438 315.355C141.898 316.565 140.918 318.285 138.728 318.405C136.848 318.515 135.548 317.175 135.108 315.525C135.138 315.195 135.118 314.855 135.028 314.495C134.988 314.355 134.908 314.255 134.828 314.185C134.818 314.175 134.818 314.165 134.808 314.155C134.798 314.145 134.778 314.135 134.768 314.125C134.598 313.975 134.348 313.955 134.168 314.115C133.998 314.185 133.838 314.305 133.778 314.495C133.548 315.165 133.028 315.885 132.398 316.325C132.238 316.345 132.098 316.425 132.008 316.545C131.358 316.845 130.648 316.825 130.008 316.125C128.698 314.665 129.618 313.225 130.828 312.195C130.838 312.205 130.838 312.205 130.848 312.215C131.228 312.525 131.818 312.135 131.558 311.675C131.538 311.645 131.528 311.605 131.508 311.575C131.658 311.255 131.458 310.885 131.128 310.815C127.028 302.565 129.298 290.205 139.758 288.035C152.518 285.385 158.228 300.225 152.948 309.825C152.558 310.535 153.088 311.185 153.688 311.305C154.318 311.905 154.968 312.295 155.338 313.135C155.738 314.055 155.668 315.075 155.108 315.925Z" fill="#B4CCB4"/>
<path d="M143.898 344.465C143.628 343.215 142.738 342.035 142.038 340.975C141.308 339.875 140.508 338.835 139.658 337.825C139.238 337.335 138.358 337.995 138.758 338.525C139.558 339.595 140.308 340.705 141.008 341.845C141.648 342.895 142.108 344.115 142.918 345.045C143.328 345.515 144.018 344.995 143.898 344.465Z" fill="#B4CCB4"/>
<path d="M145.208 337.335C144.418 336.035 143.328 334.915 142.448 333.665C141.568 332.415 140.738 331.125 139.978 329.795C139.658 329.245 138.848 329.725 139.128 330.295C140.428 332.935 141.998 336.105 144.238 338.085C144.738 338.535 145.588 337.965 145.208 337.335Z" fill="#B4CCB4"/>
<path d="M146.928 329.675C145.648 327.445 143.958 325.385 142.438 323.305C141.978 322.685 140.948 323.255 141.388 323.925C142.828 326.125 144.208 328.465 145.888 330.485C146.368 331.075 147.288 330.315 146.928 329.675Z" fill="#B4CCB4"/>
<path d="M337.528 452.085C337.268 450.935 337.008 449.795 336.728 448.655C336.448 447.485 336.368 446.485 335.328 445.755C334.698 445.305 333.948 445.675 333.588 446.245C318.158 447.845 303.508 444.385 290.258 436.335C283.138 432.015 274.108 421.145 265.068 425.675C263.288 424.435 262.048 422.755 261.498 420.635C261.108 419.155 261.128 417.595 260.138 416.335C258.678 414.475 255.898 414.255 253.888 415.305C248.198 418.285 251.438 425.675 255.168 429.145C255.108 429.255 255.068 429.385 255.088 429.545C256.488 445.825 275.078 455.325 288.988 459.435C302.998 463.575 326.538 466.325 336.948 453.345C337.368 453.155 337.668 452.725 337.528 452.085ZM290.898 457.225C276.958 453.335 261.358 445.035 257.068 430.255C257.878 430.135 258.548 429.135 258.028 428.345C256.768 426.415 254.798 424.935 254.068 422.675C253.418 420.675 254.618 415.805 257.568 417.795C258.638 418.515 258.608 420.165 258.978 421.315C259.258 422.165 259.678 422.985 260.168 423.735C261.038 425.035 262.138 426.085 263.418 426.915C263.138 427.735 263.988 428.695 265.008 428.235C273.318 424.515 280.468 433.445 286.708 437.495C291.278 440.465 296.128 442.965 301.208 444.935C311.568 448.955 322.578 450.515 333.478 448.115C333.638 448.605 333.878 449.085 334.068 449.575C334.348 450.285 334.628 450.995 334.918 451.705C325.008 463.125 303.908 460.865 290.898 457.225Z" fill="#B4CCB4"/>
<path d="M315.178 452.855C295.638 453.445 278.078 446.695 264.768 432.165C264.418 431.785 263.898 432.335 264.208 432.725C276.438 447.465 295.978 455.995 315.178 453.815C315.778 453.745 315.808 452.835 315.178 452.855Z" fill="#B4CCB4"/>
<path d="M132.748 383.634C132.378 376.034 129.048 368.624 124.488 362.634C122.168 359.574 119.398 356.614 115.888 354.914C111.148 352.624 105.268 353.844 100.988 350.464C100.398 349.994 99.6878 350.144 99.2278 350.524C95.8978 350.364 94.2478 356.234 92.8078 358.534C88.2778 365.784 84.7978 372.944 84.7278 381.704C84.6278 395.414 93.9978 407.934 108.038 409.584C123.008 411.354 133.438 397.764 132.748 383.634ZM116.058 406.284C103.458 410.144 90.6778 400.164 87.9778 388.114C86.3778 380.964 87.6678 373.304 90.7078 366.714C91.4678 365.054 96.8678 354.444 99.7278 352.664C102.498 354.774 105.288 355.244 108.778 355.844C116.428 357.164 121.168 361.834 124.978 368.374C132.068 380.554 132.418 401.274 116.058 406.284Z" fill="#B4CCB4"/>
<path d="M96.2079 370.994C93.6079 372.034 92.7279 375.804 95.0679 377.624C95.7679 378.164 96.7179 377.304 96.0679 376.624C94.8279 375.324 95.0279 372.914 96.6179 371.964C97.1179 371.674 96.7879 370.764 96.2079 370.994Z" fill="#B4CCB4"/>
<path d="M100.458 381.485C98.3776 379.695 95.2276 382.285 95.8276 384.705C96.0176 385.485 97.1276 385.135 97.0076 384.385C96.8876 383.675 97.3676 383.055 97.9476 382.715C98.5576 382.355 99.1576 382.375 99.8176 382.595C100.428 382.795 100.948 381.915 100.458 381.485Z" fill="#B4CCB4"/>
<path d="M142.418 382.915C143.938 389.445 150.148 393.855 156.548 392.785C156.298 398.545 160.508 403.235 166.348 403.565C166.628 414.025 179.308 414.145 185.518 407.745C187.598 408.735 189.918 409.175 192.268 408.995C196.408 408.675 199.418 404.675 203.148 404.635C206.038 404.605 208.688 407.065 212.188 406.705C220.108 405.895 224.648 399.315 224.718 391.955C228.388 391.695 231.018 389.895 232.548 387.495C232.638 387.485 232.708 387.505 232.798 387.485C237.108 386.395 240.548 383.425 241.268 378.805C241.498 377.335 240.918 376.175 241.018 374.765C241.228 371.675 242.358 371.515 243.988 369.545C245.618 367.575 247.288 366.415 248.108 363.825C248.808 361.605 248.798 359.155 248.098 356.935C247.568 355.265 245.548 353.315 245.508 351.775C245.468 350.595 247.758 347.605 248.028 346.085C248.548 343.085 248.008 339.935 247.118 337.075C245.798 332.865 243.088 328.085 238.848 326.235C236.808 325.355 234.978 325.225 232.848 325.895C231.658 326.275 230.608 327.535 229.448 327.845C223.418 329.435 225.598 327.555 222.938 325.855C213.628 319.905 203.078 317.555 194.168 325.015C190.318 324.715 188.978 322.305 186.458 318.695C186.438 318.245 186.168 317.835 185.738 317.685C185.718 317.665 185.708 317.635 185.688 317.615C185.298 317.075 184.538 317.365 184.308 317.865C181.718 318.625 179.348 320.295 176.998 321.575C174.028 323.185 171.068 324.805 168.128 326.455C167.308 326.915 167.038 328.265 167.978 328.795C170.098 329.975 171.818 331.595 173.388 333.375C163.548 337.695 155.588 346.005 152.318 356.355C151.548 358.785 151.168 361.395 151.208 363.935C145.288 368.055 140.688 375.515 142.418 382.915ZM223.408 389.195C222.418 389.145 221.868 389.955 221.938 390.855C222.598 399.725 215.438 405.305 207.308 403.155C205.938 402.795 203.458 401.165 201.758 401.325C200.538 401.445 199.938 402.375 199.018 402.995C195.018 405.665 190.598 406.495 186.978 405.045C186.858 404.925 186.698 404.845 186.518 404.845C184.058 403.705 181.998 401.465 180.788 397.935C180.548 397.245 179.548 397.025 178.958 397.325C175.298 399.785 172.818 398.805 171.518 394.395C169.448 393.195 168.428 391.765 168.438 390.095C172.678 391.775 177.848 390.945 181.348 386.455C183.348 390.005 186.708 392.305 191.068 392.895C193.828 393.265 196.568 392.715 199.118 391.665C202.928 390.105 205.728 385.805 209.308 384.595C214.228 382.935 218.488 385.565 222.348 380.195C223.648 378.385 224.208 376.375 224.218 374.365C234.688 375.565 233.558 389.665 223.408 389.195ZM213.668 323.525C217.318 324.645 219.728 326.735 222.488 329.215C223.318 329.965 223.648 330.775 224.728 331.275C227.988 332.765 229.468 330.095 232.238 329.195C244.108 325.365 249.058 344.755 242.258 351.145C241.778 351.605 241.588 352.535 242.138 353.035C245.168 355.235 246.308 358.535 245.568 362.925C244.288 365.825 242.318 367.805 239.658 368.865C239.348 369.365 238.528 369.595 238.188 370.145C237.778 370.815 237.768 372.355 237.708 372.785C237.728 373.645 237.958 374.475 238.388 375.255C239.088 379.675 237.578 382.675 233.868 384.275C235.058 378.975 232.028 372.875 224.298 372.705C224.218 372.705 224.158 372.725 224.098 372.735C223.858 371.085 223.268 369.475 222.378 368.005C227.808 366.465 231.158 360.915 230.648 355.075C230.008 347.705 223.618 342.915 217.498 339.765C219.768 334.845 216.338 330.295 211.448 328.015C207.588 326.215 202.118 324.845 197.628 324.915C202.538 322.425 208.208 321.855 213.668 323.525ZM159.718 347.985C163.818 342.285 169.338 338.335 175.708 335.585C175.848 335.555 175.968 335.495 176.078 335.405C177.648 334.705 176.658 332.545 175.148 332.715C173.938 330.985 172.538 329.465 171.018 327.985C173.448 326.725 175.878 325.465 178.298 324.185C180.618 322.955 183.298 321.935 185.348 320.255C186.958 322.965 188.568 325.675 190.158 328.395C190.558 329.075 191.278 329.315 192.018 329.015C196.798 327.065 201.328 327.955 205.998 329.285C209.528 330.285 218.948 332.835 214.338 339.595C213.768 340.435 214.248 341.365 215.068 341.755C219.188 343.725 223.568 346.265 225.868 350.365C229.078 356.105 227.418 365.035 219.608 365.595C218.468 365.675 218.158 367.225 218.808 367.965C225.018 375.115 217.958 384.245 209.478 380.755C209.058 380.585 208.378 380.685 208.068 381.035C202.318 387.565 187.408 396.935 182.898 383.395C182.568 382.415 181.058 381.735 180.418 382.895C175.358 392.215 161.458 387.745 164.168 376.855C164.378 376.015 163.918 375.115 162.978 375.045C148.118 373.965 154.558 355.155 159.718 347.985ZM151.508 367.135C152.428 372.265 155.448 376.565 161.278 377.565C160.608 382.635 162.878 386.685 166.238 388.935C163.658 395.805 169.388 400.915 176.168 401.155C177.938 401.215 177.858 400.585 179.038 401.165C179.378 401.325 181.438 404.745 181.648 404.965C182.278 405.625 182.968 406.195 183.698 406.695C178.138 410.125 168.148 413.485 168.998 402.355C169.068 401.415 168.258 400.905 167.428 400.965C161.408 400.615 158.728 397.445 159.388 391.455C159.598 390.595 158.928 389.335 157.848 389.695C149.528 392.455 143.168 383.735 145.348 376.235C146.428 372.555 148.858 369.745 151.508 367.135Z" fill="#B4CCB4"/>
<path d="M81.6679 398.344C75.5579 388.674 66.1679 389.745 56.2579 386.985C56.1479 386.955 56.0479 386.954 55.9579 386.954C53.0679 383.654 53.2879 378.994 51.4579 375.034C50.0679 372.034 47.8479 369.564 45.1579 367.664C38.6279 363.054 30.3479 362.704 22.9879 365.414C6.43791 371.524 -2.32209 388.804 1.20791 405.784C8.14791 439.154 65.7779 456.104 82.5779 421.564C86.1979 414.144 86.1379 405.424 81.6679 398.344ZM71.4979 430.694C54.8979 442.724 28.9979 438.114 14.6279 424.664C-0.732093 410.304 -1.32209 384.674 16.3879 371.944C25.8479 365.144 41.0279 363.294 48.2279 374.444C51.4079 379.364 50.3879 386.184 55.9379 389.344C56.2679 389.534 56.6279 389.444 56.8979 389.244C66.8879 392.684 77.3679 391.454 81.6679 403.844C85.1979 414.044 79.8079 424.674 71.4979 430.694Z" fill="#B4CCB4"/>
<path d="M79.3779 402.924C76.2179 394.394 63.5279 390.364 55.1979 390.384C55.1879 390.374 55.1879 390.364 55.1779 390.354C47.3279 384.394 49.0779 372.344 38.5379 368.944C30.5479 366.364 22.5279 370.044 17.0779 375.934C10.9179 382.604 5.63789 392.894 6.47789 402.204C7.30789 411.404 13.4479 419.314 20.4179 424.934C35.2279 436.894 60.1679 442.274 73.6679 425.244C77.8379 419.974 81.8979 409.744 79.3779 402.924ZM77.8479 411.624C75.8579 420.624 70.6579 427.904 62.1679 431.704C46.2279 438.834 26.6779 430.884 15.9179 418.144C9.92789 411.054 6.77789 402.634 9.28789 393.404C11.5079 385.214 17.7579 375.404 25.5379 371.624C35.0179 367.004 43.5779 371.494 47.5079 380.564C49.2179 384.514 50.6179 388.064 54.0479 390.614C53.8279 390.934 53.9879 391.484 54.4979 391.534C65.3779 392.604 80.9779 397.484 77.8479 411.624Z" fill="#B4CCB4"/>
<path d="M68.7581 407.574C66.5681 402.544 60.3781 400.594 55.4981 402.704C55.1181 402.864 55.0081 403.204 55.0581 403.544C52.0981 404.684 50.2281 408.954 50.3081 412.274C50.4581 418.434 55.2581 422.564 61.3581 421.044C67.3981 419.534 71.3881 413.604 68.7581 407.574ZM63.5481 417.734C59.5181 420.034 54.2881 419.444 52.8681 414.534C51.7081 410.544 53.6081 402.774 59.2981 404.724C59.6281 404.834 59.7981 404.354 59.5281 404.184C59.3381 404.064 59.1581 403.984 58.9781 403.894C61.6681 403.774 64.3281 404.664 65.9681 407.054C68.4081 410.624 67.3181 415.584 63.5481 417.734Z" fill="#B4CCB4"/>
<path d="M63.9981 409.234C63.1181 407.844 60.0581 406.264 58.6181 407.654C58.1581 407.604 57.7081 407.594 57.3981 407.744C57.0181 407.924 56.6781 408.484 56.4881 408.854C55.9681 409.844 55.8981 411.134 56.2081 412.204C56.9281 414.634 59.3981 415.894 61.7681 414.964C64.0281 414.074 65.3881 411.434 63.9981 409.234ZM60.8681 413.344C59.4081 413.794 58.1581 412.884 57.7781 411.464C57.5981 410.784 57.6181 410.084 57.8481 409.424C57.9381 409.164 58.0681 408.994 58.2381 408.874C58.3581 409.114 58.5981 409.294 58.8981 409.284C59.5481 409.274 60.0681 408.914 60.7381 409.044C61.3981 409.164 62.0481 409.594 62.4081 410.154C63.2681 411.484 62.1981 412.934 60.8681 413.344Z" fill="#B4CCB4"/>
<path d="M277.588 385.325C278.038 383.975 277.958 382.045 276.988 380.875C286.408 373.675 287.308 357.545 274.588 352.955C264.538 349.325 250.198 360.165 253.768 371.035C252.448 371.095 251.208 371.435 250.398 372.615C249.578 373.815 249.468 375.415 250.098 376.715C250.598 377.725 251.568 378.365 252.628 378.605C250.278 384.955 248.518 391.485 246.868 398.045C245.348 404.135 242.688 411.345 242.818 417.645C242.828 417.955 243.068 418.345 243.368 418.445C247.558 419.865 251.108 413.285 253.438 410.685C259.778 403.585 265.528 396.065 270.918 388.235C271.758 388.665 272.738 388.815 273.738 388.635C275.508 388.325 277.018 387.025 277.588 385.325ZM258.308 402.035C256.238 404.555 248.938 415.195 246.288 414.285C243.638 413.375 251.858 386.205 253.888 378.725C254.208 378.705 254.538 378.665 254.838 378.575C254.868 380.025 255.598 381.545 256.708 382.445C258.348 383.775 261.198 384.065 263.278 383.135C263.428 384.335 264.288 385.455 265.518 385.875C266.398 386.175 267.738 386.035 268.858 385.535C268.928 385.915 269.058 386.295 269.268 386.665C269.368 386.845 269.488 387.015 269.608 387.175C266.018 392.255 262.268 397.215 258.308 402.035ZM274.548 386.165C273.828 386.605 272.718 386.825 271.918 386.505C271.018 386.155 270.028 384.905 270.738 383.945C270.868 383.765 270.888 383.545 270.838 383.345C270.848 383.255 270.858 383.155 270.858 383.065C270.848 382.725 270.498 382.445 270.168 382.485C268.968 382.625 268.258 383.905 267.028 384.125C265.778 384.345 264.308 383.135 264.988 381.845C265.008 381.815 265.048 381.795 265.068 381.765C265.518 381.155 264.988 380.455 264.288 380.605C262.378 381.025 260.748 382.155 258.728 381.325C256.988 380.605 256.398 378.835 256.708 377.165C256.878 376.885 257.008 376.565 257.088 376.205C257.118 376.065 257.088 375.945 257.038 375.835C257.038 375.825 257.038 375.815 257.028 375.795C257.018 375.785 257.008 375.765 256.998 375.755C256.918 375.545 256.698 375.415 256.458 375.485C256.268 375.475 256.088 375.515 255.938 375.655C255.448 376.155 254.658 376.585 253.898 376.715C253.748 376.665 253.588 376.675 253.458 376.745C252.748 376.735 252.108 376.415 251.838 375.505C251.288 373.625 252.738 372.715 254.278 372.315C254.278 372.325 254.288 372.335 254.288 372.335C254.488 372.775 255.198 372.685 255.158 372.145C255.158 372.105 255.158 372.065 255.158 372.025C255.428 371.795 255.418 371.385 255.138 371.175C255.008 361.965 262.398 351.805 272.778 354.365C285.428 357.485 284.158 373.335 275.248 379.715C274.588 380.185 274.788 381.005 275.278 381.365C275.588 382.175 276.008 382.815 275.978 383.735C275.918 384.745 275.418 385.635 274.548 386.165Z" fill="#B4CCB4"/>
<path d="M252.098 407.055C252.398 405.815 252.098 404.355 251.928 403.105C251.748 401.795 251.478 400.505 251.138 399.235C250.978 398.615 249.898 398.825 250.018 399.475C250.278 400.785 250.478 402.115 250.608 403.445C250.728 404.665 250.618 405.975 250.948 407.155C251.128 407.745 251.978 407.585 252.098 407.055Z" fill="#B4CCB4"/>
<path d="M256.358 401.185C256.208 399.675 255.708 398.185 255.458 396.685C255.208 395.175 255.018 393.655 254.898 392.125C254.848 391.485 253.908 391.575 253.918 392.205C253.948 395.155 253.988 398.685 255.158 401.435C255.418 402.065 256.428 401.915 256.358 401.185Z" fill="#B4CCB4"/>
<path d="M261.218 395.025C261.028 392.455 260.398 389.865 259.918 387.345C259.778 386.585 258.598 386.655 258.698 387.445C259.048 390.055 259.278 392.754 259.918 395.304C260.118 396.044 261.278 395.755 261.218 395.025Z" fill="#B4CCB4"/>
<path d="M161.828 465.395C164.028 456.845 166.268 448.745 164.638 439.905C164.388 438.565 162.988 438.535 162.178 439.245C162.208 438.555 162.158 437.835 161.978 437.085C165.528 441.065 172.128 438.645 172.308 433.185C172.498 427.555 167.408 425.285 162.798 426.135C164.868 420.945 165.388 414.174 159.118 411.924C156.028 410.814 152.478 412.645 151.378 415.385C149.918 413.335 148.478 410.885 146.028 411.045C142.458 411.285 140.728 416.614 139.878 420.174C136.608 417.854 132.498 415.935 128.768 418.205C126.138 419.805 124.858 422.845 125.948 425.575C124.668 425.975 123.438 426.565 122.318 427.345C120.338 421.595 113.188 420.255 109.408 425.255C108.408 421.375 104.418 418.705 100.108 419.505C93.0779 420.805 90.8679 427.675 91.3679 433.935C86.0079 431.575 79.2879 433.774 78.2679 440.424C78.0979 441.524 78.6279 443.775 79.5079 445.735C75.6079 444.925 71.2679 445.565 68.7879 448.975C66.9279 451.535 66.6879 454.915 68.1679 457.545C65.2879 458.175 62.5179 459.685 62.0079 462.865C61.6679 464.945 62.5279 467.155 64.2379 468.115C61.4979 470.715 60.1679 475.375 63.5579 478.035C65.9579 479.915 69.2179 479.365 71.0579 477.395C74.7779 483.335 84.3479 481.705 85.2279 473.945C85.5079 474.215 85.8279 474.435 86.1379 474.665C85.3579 474.465 84.5679 475.425 85.2579 476.155C98.3379 489.955 113.698 497.915 130.718 505.845C135.268 507.965 139.698 510.355 143.218 514.025C146.218 517.145 148.078 521.065 150.858 524.355C154.398 528.535 160.028 532.285 165.688 530.115C180.768 524.335 165.068 504.985 162.138 497.005C158.278 486.485 159.098 476.045 161.828 465.395ZM129.498 421.035C131.798 419.675 133.928 419.615 135.868 420.855C137.438 421.505 138.708 422.495 140.058 423.505C140.688 423.975 141.808 423.495 141.938 422.735C142.528 419.395 144.118 411.915 148.488 415.085C149.538 415.845 150.228 416.965 151.108 417.915C151.198 418.455 151.388 419.005 151.698 419.545C152.298 420.615 153.638 419.895 153.608 418.875C153.708 418.745 153.778 418.584 153.798 418.424C156.438 413.774 158.808 413.185 160.898 416.665C161.658 417.825 161.908 419.074 161.648 420.424C161.688 423.224 160.578 425.395 159.148 427.765C158.468 428.895 159.808 430.165 160.928 429.545C163.438 428.135 167.158 427.715 169.038 430.645C171.308 434.175 166.508 439.255 163.068 435.375C162.508 434.745 161.788 435.115 161.548 435.715C161.408 435.375 161.258 435.024 161.068 434.674C160.328 433.295 158.298 434.505 158.988 435.895C162.528 443.085 152.368 448.055 148.828 440.795C148.318 439.755 146.528 440.235 146.608 441.395C146.938 445.905 142.708 447.885 139.488 446.245C140.968 444.085 140.808 440.925 138.108 438.705C140.148 436.085 140.228 431.885 137.778 428.835C135.438 425.915 132.078 424.785 128.738 425.045L129.498 421.035ZM149.778 466.575C144.018 473.655 138.228 461.545 134.378 456.405C135.208 455.885 135.928 455.125 136.458 454.065C137.438 452.105 137.288 450.035 136.258 448.455C136.888 448.305 137.448 448.045 137.948 447.725C141.688 450.585 147.018 448.925 148.548 444.575C149.668 445.705 150.988 446.355 152.358 446.625C152.308 446.715 152.238 446.785 152.198 446.895C150.098 452.905 153.948 461.435 149.778 466.575ZM84.0879 472.205C83.5779 472.275 83.0979 472.615 83.0579 473.265C82.5679 479.885 73.9779 480.475 72.3779 474.185C71.9979 472.705 70.0879 473.215 69.9179 474.515C69.4879 477.935 64.2579 477.035 63.9379 473.545C63.7379 471.325 65.3479 469.515 66.9479 468.265C67.2279 468.055 67.2779 467.775 67.1979 467.515C67.1979 467.195 67.0479 466.895 66.6979 466.725C64.7379 465.835 63.7979 463.655 65.4379 461.645C66.5479 460.275 69.0979 459.955 70.6679 459.865C71.7379 459.805 72.5379 458.395 71.6079 457.585C68.8279 455.145 69.5979 450.845 72.5579 448.825C74.9679 447.175 78.0279 447.315 80.7779 447.905C82.0079 449.505 83.4979 450.055 84.8379 447.715C85.4479 446.635 83.8779 445.745 83.1879 446.755C81.5879 446.315 80.8079 445.305 80.8279 443.755C80.2979 442.435 80.2879 441.095 80.8079 439.745C82.7979 435.215 87.8979 433.775 92.0279 436.975C92.9379 437.675 94.2279 437.055 93.9779 435.835C93.1379 431.725 93.1579 427.025 96.4879 423.895C100.888 419.755 107.638 422.035 107.558 428.245C107.548 429.355 109.348 429.665 109.548 428.515C109.628 428.065 109.648 427.625 109.648 427.195C109.788 427.145 109.918 427.065 110.018 426.915C114.228 422.055 117.758 422.825 120.608 429.225C120.718 430.145 121.708 430.645 122.448 429.985C124.888 427.805 127.938 426.615 131.298 427.345C132.158 427.685 133.028 428.015 133.888 428.355C138.568 431.265 137.958 434.785 132.088 438.924C130.668 438.875 130.738 440.945 132.088 441.085C133.838 441.275 135.308 440.905 136.488 440.185C135.548 442.225 134.618 444.275 133.678 446.315C132.248 445.995 131.808 447.915 133.088 448.455C135.938 450.945 135.428 452.505 131.558 453.145C129.588 455.305 127.558 455.475 125.478 453.635C124.788 453.255 123.848 453.725 123.868 454.555C123.958 458.605 121.258 460.835 118.358 460.915C117.988 459.655 116.518 459.665 115.838 460.405C114.478 459.815 113.238 458.705 112.448 456.995C112.168 456.385 111.228 456.665 111.128 457.225C110.558 456.715 109.538 457.305 110.028 458.025C113.548 463.305 106.398 465.685 103.048 463.795C100.468 462.335 99.4479 459.715 98.8379 456.945C98.6779 456.225 97.4879 456.005 97.1679 456.725C95.5379 460.405 90.7379 462.855 86.9379 460.475C83.0479 458.045 83.5479 452.915 85.6179 449.565C86.0779 448.815 85.0379 448.035 84.4179 448.635C80.7679 452.185 81.3679 458.715 85.4879 461.715C88.3479 463.795 91.8379 463.605 94.6379 462.015C94.7079 462.175 94.8079 462.325 94.9679 462.465C97.7279 464.955 98.5279 469.485 95.7279 472.325C92.8979 475.195 88.1879 474.465 85.5779 471.765C85.0679 471.235 84.2179 471.625 84.0879 472.205ZM96.7579 460.655C96.6979 460.605 96.6379 460.595 96.5779 460.565C96.9279 460.235 97.2679 459.885 97.5679 459.505C98.9579 463.825 102.568 468.205 107.518 466.785C110.698 465.875 112.848 462.575 112.248 459.535C113.188 460.875 114.388 461.765 115.698 462.285C116.488 465.185 117.128 468.115 117.418 471.115C117.578 472.765 117.668 474.455 117.638 476.115C117.598 479.085 117.838 479.545 114.848 481.115C111.778 482.725 111.318 482.145 108.498 480.575C107.388 479.955 106.318 479.265 105.268 478.545C102.788 476.845 100.628 474.895 98.4979 472.805C100.958 469.095 100.328 463.475 96.7579 460.655ZM168.698 520.135C166.618 522.575 164.528 525.025 162.438 527.465C159.958 527.365 157.858 526.515 156.138 524.915C150.678 520.805 148.228 513.755 142.868 509.375C137.788 505.225 131.578 502.865 125.628 500.285C111.288 494.055 98.4679 485.485 86.7879 475.105C89.8779 476.915 94.0479 476.855 96.9079 474.505C101.018 479.195 111.348 489.065 117.538 484.815C120.088 483.065 120.418 479.785 120.518 476.945C120.678 472.155 120.048 467.405 118.858 462.785C122.128 462.585 125.238 460.245 125.868 456.215C127.828 457.055 130.128 457.555 132.158 457.215C136.138 462.785 140.108 475.315 149.188 471.095C157.978 467.015 152.878 454.665 155.198 447.725C155.338 447.315 155.278 446.974 155.148 446.674C158.018 446.224 160.658 444.275 161.708 441.525C163.728 456.745 154.678 470.915 156.318 486.325C156.978 492.545 158.798 498.555 161.708 504.085C163.298 507.105 165.378 509.875 166.848 512.965C167.708 514.785 169.208 518.035 168.698 520.135Z" fill="#B4CCB4"/>
<path d="M170.358 440.345C170.378 440.665 170.558 440.885 170.788 441.005C171.268 447.595 174.458 454.235 180.358 457.585C183.408 459.315 186.428 460.245 188.998 462.765C191.108 464.825 192.478 467.315 194.118 469.745C196.278 472.955 198.148 475.355 201.658 476.815C201.718 476.865 201.798 476.915 201.888 476.955C203.598 477.695 206.398 476.965 207.608 475.555C208.668 474.325 208.718 472.775 207.748 471.625C207.878 471.315 207.808 470.945 207.418 470.815C206.238 470.425 205.218 469.835 204.268 469.125C213.628 454.705 220.388 438.185 227.908 422.765C228.228 422.115 227.648 421.205 226.888 421.335C210.028 424.235 193.938 433.335 178.378 440.205C178.308 440.085 178.238 439.975 178.168 439.855C178.228 439.755 178.258 439.625 178.198 439.475C177.478 437.825 175.898 436.775 174.068 436.915C172.428 437.045 170.248 438.535 170.358 440.345ZM206.158 462.765C203.438 462.355 202.488 458.805 203.768 456.605C205.128 454.275 207.438 454.555 209.538 455.305C208.368 457.775 207.228 460.255 206.158 462.765ZM221.668 430.945C221.118 432.045 220.568 433.145 220.008 434.245C219.378 434.075 218.898 433.425 218.838 432.765C218.768 431.915 219.028 431.145 219.378 430.395C220.058 430.675 220.758 430.905 221.498 430.965C221.568 430.965 221.618 430.945 221.668 430.945ZM196.988 434.015C196.988 434.045 196.988 434.065 196.998 434.085C197.218 434.865 197.448 435.655 197.678 436.435C197.798 436.865 198.468 438.275 198.098 438.685C197.898 438.915 197.208 438.925 196.918 439.045C196.858 439.075 196.808 439.105 196.748 439.135C195.998 437.805 195.398 436.415 194.938 434.955C195.618 434.645 196.298 434.335 196.988 434.015ZM193.488 435.635C194.068 437.455 194.858 439.165 195.868 440.795C196.118 441.195 196.858 441.275 197.128 440.845C197.738 439.875 199.388 440.465 199.738 439.015C199.908 438.305 199.478 437.545 199.228 436.915C198.808 435.855 198.388 434.795 197.968 433.735C197.948 433.685 197.918 433.645 197.888 433.605C206.788 429.535 215.858 425.795 225.168 423.765C224.268 425.675 223.318 427.575 222.378 429.485C222.258 429.315 222.068 429.195 221.798 429.185C220.938 429.135 220.138 429.015 219.328 428.705C218.958 428.565 218.468 428.685 218.308 429.085C217.758 430.525 217.028 432.475 218.198 433.795C218.618 434.275 219.148 434.675 219.718 434.835C216.578 441.055 213.368 447.275 210.358 453.565C207.578 451.525 203.048 453.465 201.878 456.485C200.748 459.405 202.278 463.825 205.698 463.865C205.018 465.475 204.348 467.095 203.718 468.715C198.948 464.715 196.678 457.265 191.258 453.625C188.648 451.875 184.468 450.905 182.408 448.545C180.848 446.755 180.178 444.405 179.298 442.195C183.988 440.135 188.718 437.875 193.488 435.635ZM174.208 438.745C174.878 438.585 175.558 438.715 176.178 439.015C176.188 439.115 176.208 439.215 176.268 439.325C176.618 439.945 176.868 440.585 177.088 441.235C176.968 441.685 177.128 442.195 177.478 442.475C178.028 444.435 178.418 446.405 179.678 448.145C182.158 451.595 186.728 453.035 190.018 455.455C196.348 460.105 198.298 470.455 206.608 472.005C207.188 472.965 206.118 474.285 205.308 474.645C204.228 475.125 202.998 474.815 201.948 475.285C201.828 475.335 201.738 475.415 201.648 475.505C196.468 470.405 193.868 462.745 187.768 458.725C184.918 456.845 181.448 456.205 178.838 453.865C174.988 450.405 173.698 445.365 172.488 440.565C172.448 440.425 172.388 440.315 172.308 440.235C172.458 439.975 172.618 439.715 172.838 439.495C173.208 439.115 173.688 438.865 174.208 438.745Z" fill="#B4CCB4"/>
<path d="M193.318 450.985C193.148 451.315 193.288 451.675 193.528 451.915C194.658 453.055 195.938 454.225 197.348 454.995C197.808 455.245 198.258 454.935 198.418 454.525C200.388 453.645 200.788 450.595 199.108 449.235C197.178 447.675 194.318 448.995 193.318 450.985ZM198.058 450.305C199.348 451.045 198.958 452.655 198.058 453.525C197.028 452.755 195.998 452.035 195.048 451.175C195.748 450.295 197.038 449.715 198.058 450.305Z" fill="#B4CCB4"/>
<path d="M183.648 443.685C182.748 445.925 184.208 449.425 186.778 449.755C187.028 449.785 187.278 449.645 187.408 449.435C189.128 450.085 191.118 449.235 192.028 447.625C193.248 445.475 191.938 442.935 189.938 441.825C187.748 440.605 184.638 441.205 183.648 443.685ZM189.028 443.405C190.248 444.015 191.148 445.415 190.678 446.785C190.218 448.155 188.558 449.025 187.208 448.455C187.168 448.435 187.128 448.455 187.088 448.455C186.108 447.415 184.848 446.635 185.118 444.945C185.438 443.045 187.518 442.645 189.028 443.405Z" fill="#B4CCB4"/>
<path d="M199.638 445.565C199.728 446.225 199.918 446.715 200.368 447.225C200.888 447.805 201.838 447.195 201.378 446.515C201.268 446.375 201.208 446.235 201.158 446.085C202.268 445.905 203.378 445.645 204.468 445.405C205.028 445.285 205.878 444.925 206.438 444.955C207.298 445.015 207.528 445.555 207.608 446.165C205.428 446.295 203.298 446.795 201.278 447.645C200.398 448.015 200.888 449.385 201.788 449.045C203.998 448.195 206.228 447.835 208.588 447.825C209.068 447.825 209.388 447.315 209.368 446.885C209.308 445.285 208.808 443.315 206.888 443.215C205.938 443.165 204.898 443.555 203.998 443.775C202.708 444.085 201.368 444.345 200.118 444.805C199.818 444.925 199.598 445.255 199.638 445.565Z" fill="#B4CCB4"/>
<path d="M204.608 435.445C204.538 437.805 206.658 440.995 209.288 440.705C211.318 441.995 214.048 439.915 214.758 437.755C215.748 434.735 214.068 431.315 210.808 430.785C207.878 430.305 204.708 432.335 204.608 435.445ZM209.058 432.725C211.058 432.305 212.838 433.395 213.188 435.435C213.338 436.325 213.218 437.285 212.808 438.095C212.338 439.045 211.258 439.935 210.148 439.905C210.128 439.735 210.018 439.575 209.788 439.485C208.278 438.925 206.998 438.345 206.498 436.655C205.958 434.775 207.218 433.125 209.058 432.725Z" fill="#B4CCB4"/>
</svg>
